<svg width="60" height="60" viewBox="0 0 60 60" fill="none" xmlns="http://www.w3.org/2000/svg">
<path d="M58.0877 29.6709C56.9505 9.90281 46.7383 7.0125 38.5052 7.01156C36.4249 7.0125 34.472 7.19625 32.823 7.34062C32.8089 6.44156 32.8474 5.47875 32.9983 4.41469C33.0011 4.39969 32.9945 4.38656 32.9927 4.3725C32.9945 4.365 32.9983 4.3575 32.9983 4.35C32.9983 4.01906 32.3758 3.75 31.6052 3.75C30.8364 3.75 30.2139 4.01906 30.2139 4.35C30.0031 5.42259 29.7158 6.47872 29.3542 7.51031C18.4914 7.57594 4.18235 9.29906 1.99798 28.9997C0.4136 43.2975 14.3777 56.25 30.0873 56.25C45.797 56.25 58.9136 44.0391 58.0877 29.6709ZM33.408 10.1128C33.7914 10.0791 34.1889 10.0444 34.5977 10.0116C34.1064 10.2094 33.6292 10.4147 33.1802 10.6209C33.1474 10.4728 33.1249 10.2966 33.0949 10.1391L33.408 10.1128ZM28.1964 10.3359C28.0736 10.5919 27.9536 10.8375 27.8383 11.0634C27.5618 10.8132 27.2696 10.5809 26.9636 10.3678C27.3742 10.3538 27.7849 10.3444 28.1964 10.3359ZM49.3567 45.3056C44.477 50.4741 37.4533 53.4375 30.0873 53.4375C22.5808 53.4375 15.1249 50.115 10.1411 44.55C6.10329 40.0397 4.20391 34.6275 4.7936 29.3091C5.90079 19.3266 10.3174 14.5584 15.9855 12.3C21.4774 11.28 26.6448 13.1531 26.6448 13.1531C26.6448 13.1531 14.8989 10.2375 10.293 25.3294C16.0895 16.2928 26.0645 18.9525 28.6886 15.6216C28.6886 22.0613 33.3686 18.9366 35.7339 21.8372C38.777 25.5666 39.8908 32.2491 43.3914 33.5653C39.9433 26.1628 45.5889 26.4516 37.6567 16.5169C41.8352 19.1128 44.0017 16.4859 49.7074 18.825C44.8258 10.8459 37.0164 13.1531 37.0164 13.1531C37.0164 13.1531 40.1945 10.2572 43.5639 10.3378C49.2564 11.6672 54.4924 16.14 55.2808 29.8331C55.6014 35.4253 53.4977 40.92 49.3567 45.3056Z" fill="#D4E2F1"/>
</svg>
