<svg width="84" height="62" viewBox="0 0 84 62" fill="none" xmlns="http://www.w3.org/2000/svg">
<path d="M3.01085 25.7885V58.9706H10.9543V26.0288C10.9543 25.9286 10.9676 25.8285 10.9943 25.7417C12.3026 19.4004 14.8258 15.3419 18.2702 13.0189C21.7413 10.676 26.0935 10.142 31.0397 10.8562C31.5938 10.9363 31.9743 11.4436 31.9008 11.9976C31.8808 12.1311 31.8408 12.2513 31.7807 12.3581C29.7715 15.8625 28.897 19.387 29.2308 22.9248C29.5712 26.4894 31.1399 30.1073 34.0102 33.792C34.2772 34.1324 34.2905 34.5863 34.0836 34.9334C33.8099 35.394 33.6831 35.8546 33.6964 36.3285C33.7165 36.8091 33.8767 37.3231 34.1904 37.8771L35.986 39.9331C36.1662 40.1066 36.3398 40.2001 36.5134 40.2001C36.7603 40.1934 37.0741 40.0466 37.4679 39.7328L66.1376 10.7561C66.3245 10.5291 66.4046 10.3622 66.3913 10.2488C66.3712 10.1153 66.2377 9.94837 65.9907 9.74812C65.9373 9.7014 65.8839 9.65467 65.8439 9.60127L65.7037 9.42771C65.6904 9.40769 65.677 9.38766 65.6637 9.37431C64.1084 7.4719 63.8147 7.15149 60.8776 7.63878C60.5972 7.6855 60.3302 7.61208 60.1166 7.46522C56.2384 4.94202 52.4669 3.46014 48.8156 3.11304C45.1977 2.76593 41.6599 3.54024 38.2222 5.50941C37.9218 5.68296 37.568 5.68296 37.2743 5.54279C34.2505 4.30789 31.3134 3.55359 28.5032 3.24654C23.1831 2.6658 18.3436 3.68042 14.3452 6.05677C10.3468 8.43312 7.16278 12.1779 5.16024 17.0507C4.10557 19.6206 3.37798 22.511 3.03087 25.6817C3.0242 25.715 3.0242 25.7484 3.01085 25.7885ZM54.9901 33.278L55.0903 33.1244C55.6176 32.3702 56.6789 32.1899 57.4332 32.7239L67.4526 39.7195C68.2069 40.2468 68.3871 41.3082 67.8531 42.0625L67.753 42.216C67.2256 42.9703 66.1643 43.1505 65.41 42.6165L55.3906 35.6143C54.6363 35.0869 54.4628 34.0323 54.9901 33.278ZM46.1055 39.9998L46.2056 39.8463C46.733 39.092 47.7943 38.9118 48.5486 39.4458L58.568 46.4413C59.3223 46.9687 59.5025 48.03 58.9685 48.7843L58.8684 48.9378C58.341 49.6921 57.2797 49.8724 56.5254 49.3384L46.506 42.3361C45.7517 41.8088 45.5782 40.7541 46.1055 39.9998ZM62.3929 26.0288L62.493 25.8752C63.0203 25.121 64.0817 24.9407 64.836 25.4747L74.8553 32.4703C75.6096 32.9976 75.7898 34.059 75.2558 34.8133L75.1557 34.9668C74.6284 35.7211 73.567 35.9013 72.8127 35.3673L62.7934 28.3651C62.0391 27.8377 61.8655 26.7831 62.3929 26.0288ZM69.8423 18.5459L69.9424 18.3924C70.4698 17.6381 71.5311 17.4579 72.2854 17.9919L82.3048 24.9875C83.0591 25.5148 83.2393 26.5761 82.7053 27.3304L82.6052 27.484C82.0778 28.2382 81.0165 28.4185 80.2622 27.8845L70.2428 20.8889C69.4885 20.3616 69.315 19.3069 69.8423 18.5459ZM0.988281 59.9852V25.5949C0.988281 25.4814 1.00831 25.3679 1.04168 25.2611C1.42217 21.977 2.18981 18.9665 3.2912 16.2697C5.46062 10.9763 8.93169 6.90451 13.3106 4.30121C17.6828 1.70458 22.9495 0.589835 28.7168 1.2173C31.5871 1.53103 34.5776 2.27864 37.6481 3.50019C41.3261 1.49765 45.1109 0.716662 49.0025 1.09047C52.9008 1.46428 56.8725 2.98621 60.9243 5.57616C64.6557 4.98875 65.0963 5.49606 67.219 8.08601C67.2323 8.10604 67.2523 8.11939 67.2657 8.13941L67.3525 8.23954C67.9532 8.75353 68.3137 9.32759 68.3938 9.97508C68.4873 10.676 68.2536 11.3702 67.6729 12.0644C67.6529 12.0844 67.6328 12.1044 67.6128 12.1311L38.863 41.188C38.8363 41.2147 38.8096 41.2347 38.7829 41.2614C37.9952 41.9022 37.2543 42.2026 36.5467 42.216C35.7724 42.2293 35.1049 41.9156 34.5308 41.3415C34.5175 41.3282 34.5041 41.3082 34.4841 41.2948L32.595 39.1321C32.555 39.0853 32.5149 39.0319 32.4816 38.9785C31.9676 38.1041 31.6939 37.243 31.6605 36.4019C31.6338 35.7544 31.754 35.127 32.0076 34.5262C29.1373 30.7014 27.562 26.9032 27.2015 23.1184C26.8678 19.6006 27.582 16.1229 29.2909 12.6852C25.4326 12.3314 22.0684 12.8854 19.385 14.6944C16.3811 16.7236 14.1583 20.3616 12.9635 26.1156V59.9852C12.9635 60.5459 12.5096 60.9998 11.9489 60.9998H2.0029C1.44219 60.9998 0.988281 60.5459 0.988281 59.9852Z" fill="#D4E2F1" stroke="#D4E2F1" stroke-width="1.83478"/>
</svg>
