<svg width="60" height="60" viewBox="0 0 60 60" fill="none" xmlns="http://www.w3.org/2000/svg">
<g clip-path="url(#clip0_682_23639)">
<path d="M8.4 7.19922C8.08176 7.19928 7.77658 7.32574 7.55156 7.55078L3.95156 11.1508C3.805 11.2972 3.69882 11.479 3.64338 11.6787C3.58793 11.8783 3.5851 12.0888 3.63516 12.2898L4.83516 17.0898C4.90003 17.3497 5.04993 17.5803 5.26101 17.7451C5.47209 17.9099 5.73222 17.9993 6 17.9992H12V20.3992H10.3172C8.05147 20.3992 5.97442 21.682 4.95703 23.7062L4.99453 23.6359L0.885938 30.618C0.306614 31.562 0 32.6472 0 33.7539V44.7695C0 46.5396 1.45964 47.9992 3.22969 47.9992H4.91016C5.48654 51.3931 8.44779 53.9992 12 53.9992C15.5522 53.9992 18.5135 51.3931 19.0898 47.9992H40.9102C41.4865 51.3931 44.4478 53.9992 48 53.9992C51.5522 53.9992 54.5135 51.3931 55.0898 47.9992H56.4C58.3745 47.9992 60 46.3738 60 44.3992V38.8656C60 35.941 57.8708 33.4293 54.9867 32.9477L44.993 31.2812L36.6398 22.532C35.5003 21.1796 33.8208 20.3992 32.0531 20.3992H31.2V17.9992H37.2C37.4229 17.9992 37.6413 17.9372 37.8309 17.82C38.0205 17.7029 38.1737 17.5353 38.2734 17.3359L40.6734 12.5359C40.7529 12.3772 40.7961 12.2028 40.7999 12.0253C40.8038 11.8478 40.7682 11.6717 40.6958 11.5096C40.6234 11.3475 40.516 11.2035 40.3812 11.0879C40.2464 10.9724 40.0877 10.8882 39.9164 10.8414L26.7164 7.24141C26.6133 7.21332 26.5069 7.19913 26.4 7.19922H8.4ZM8.89688 9.59922H26.2383L37.8727 12.7727L36.4594 15.5992H6.9375L6.12891 12.3672L8.89688 9.59922ZM14.4 17.9992H28.8V20.3992H14.4V17.9992ZM10.3172 22.7992H20.4V31.1992H3.32813L7.08281 24.8195L7.10156 24.782C7.71377 23.5639 8.95411 22.7992 10.3172 22.7992ZM22.8 22.7992H32.0531C33.1151 22.7992 34.1202 23.2666 34.8047 24.0789L34.8281 24.107L41.5945 31.1992H22.8V22.7992ZM2.40938 33.5992H44.2992L54.593 35.3148C56.3361 35.606 57.6 37.0982 57.6 38.8656V44.3992C57.6 45.0647 57.0655 45.5992 56.4 45.5992H55.0898C54.5135 42.2054 51.5522 39.5992 48 39.5992C44.4478 39.5992 41.4865 42.2054 40.9102 45.5992H19.0898C18.5135 42.2054 15.5522 39.5992 12 39.5992C8.44779 39.5992 5.48654 42.2054 4.91016 45.5992H3.22969C2.75814 45.5992 2.4 45.2411 2.4 44.7695V33.7539C2.4 33.702 2.40715 33.651 2.40938 33.5992ZM12 41.9992C14.6645 41.9992 16.8 44.1348 16.8 46.7992C16.8 49.4637 14.6645 51.5992 12 51.5992C9.33555 51.5992 7.2 49.4637 7.2 46.7992C7.2 44.1348 9.33555 41.9992 12 41.9992ZM48 41.9992C50.6645 41.9992 52.8 44.1348 52.8 46.7992C52.8 49.4637 50.6645 51.5992 48 51.5992C45.3356 51.5992 43.2 49.4637 43.2 46.7992C43.2 44.1348 45.3356 41.9992 48 41.9992Z" fill="#D4E2F1" stroke="#D4E2F1" stroke-width="0.659341"/>
</g>
<defs>
<clipPath id="clip0_682_23639">
<rect width="60" height="60" fill="white"/>
</clipPath>
</defs>
</svg>
