<svg width="25" height="24" viewBox="0 0 25 24" fill="none" xmlns="http://www.w3.org/2000/svg">
<g id="Star">
<g id="Iconly/Bold/Star">
<g id="Star_2">
<path id="Vector" d="M18.3544 14.32C18.0954 14.571 17.9764 14.934 18.0354 15.29L18.9244 20.21C18.9994 20.627 18.8234 21.049 18.4744 21.29C18.1324 21.54 17.6774 21.57 17.3044 21.37L12.8754 19.06C12.7214 18.978 12.5504 18.934 12.3754 18.929H12.1044C12.0104 18.943 11.9184 18.973 11.8344 19.019L7.40442 21.34C7.18542 21.45 6.93742 21.489 6.69442 21.45C6.10242 21.338 5.70742 20.774 5.80442 20.179L6.69442 15.259C6.75342 14.9 6.63442 14.535 6.37542 14.28L2.76442 10.78C2.46242 10.487 2.35742 10.047 2.49542 9.65C2.62942 9.254 2.97142 8.965 3.38442 8.9L8.35442 8.179C8.73242 8.14 9.06442 7.91 9.23442 7.57L11.4244 3.08C11.4764 2.98 11.5434 2.888 11.6244 2.81L11.7144 2.74C11.7614 2.688 11.8154 2.645 11.8754 2.61L11.9844 2.57L12.1544 2.5H12.5754C12.9514 2.539 13.2824 2.764 13.4554 3.1L15.6744 7.57C15.8344 7.897 16.1454 8.124 16.5044 8.179L21.4744 8.9C21.8944 8.96 22.2454 9.25 22.3844 9.65C22.5154 10.051 22.4024 10.491 22.0944 10.78L18.3544 14.32Z" fill="#98BCE3"/>
</g>
</g>
</g>
</svg>
