<svg width="78" height="18" viewBox="0 0 78 18" fill="none" xmlns="http://www.w3.org/2000/svg">
<g id="Group 12">
<g id="Type">
<g id="Group">
<path id="Vector" d="M20.2343 4.85156H28.0295V6.32549H24.9644V14.6112H23.279V6.32549H20.2275V4.85156H20.2343ZM27.6965 7.54458H29.1372V8.9083H29.1644C29.212 8.71545 29.3003 8.52949 29.4295 8.35042C29.5586 8.17134 29.7149 7.99915 29.8984 7.85452C30.0819 7.70299 30.2858 7.5859 30.5101 7.48948C30.7343 7.39994 30.9654 7.35173 31.1965 7.35173C31.3732 7.35173 31.5023 7.35862 31.5702 7.3655C31.6382 7.37239 31.7062 7.38617 31.7809 7.39305V8.89453C31.6722 8.87387 31.5635 8.86009 31.4479 8.84632C31.3324 8.83254 31.2236 8.82565 31.1149 8.82565C30.8567 8.82565 30.612 8.88075 30.3809 8.98407C30.1499 9.08738 29.9528 9.24579 29.7829 9.44553C29.613 9.65216 29.477 9.90011 29.3751 10.2032C29.2732 10.5062 29.2256 10.8506 29.2256 11.2432V14.6043H27.6897V7.54458H27.6965ZM38.8421 14.6112H37.3333V13.6262H37.3062C37.1159 13.9844 36.8372 14.2668 36.4634 14.4803C36.0897 14.6938 35.7091 14.804 35.3217 14.804C34.4042 14.804 33.7382 14.5767 33.3304 14.1153C32.9227 13.6538 32.7188 12.9582 32.7188 12.0283V7.54458H34.2547V11.8768C34.2547 12.4967 34.3702 12.9375 34.6081 13.1923C34.8392 13.4472 35.1722 13.578 35.5935 13.578C35.9198 13.578 36.1848 13.5298 36.4023 13.4265C36.6198 13.3232 36.7965 13.1923 36.9256 13.0201C37.0615 12.8548 37.1566 12.6482 37.2178 12.414C37.279 12.1799 37.3062 11.925 37.3062 11.6495V7.55147H38.8421V14.6112ZM41.4586 12.3452C41.5062 12.7997 41.6761 13.1166 41.9683 13.3025C42.2673 13.4816 42.6207 13.578 43.0353 13.578C43.178 13.578 43.3411 13.5643 43.5246 13.5436C43.7081 13.5229 43.8848 13.4747 44.0411 13.4127C44.2042 13.3507 44.3333 13.2543 44.4421 13.1303C44.544 13.0064 44.5916 12.848 44.5848 12.6482C44.578 12.4485 44.5032 12.2832 44.3673 12.1592C44.2314 12.0283 44.0615 11.9319 43.8508 11.8493C43.6401 11.7735 43.4023 11.7046 43.1304 11.6495C42.8586 11.5944 42.5867 11.5324 42.3081 11.4705C42.0227 11.4085 41.744 11.3258 41.479 11.2363C41.2139 11.1467 40.9761 11.0228 40.7654 10.8644C40.5547 10.7128 40.3848 10.5131 40.2625 10.272C40.1333 10.031 40.0722 9.73481 40.0722 9.37666C40.0722 8.99095 40.1673 8.67413 40.3508 8.4124C40.5343 8.15068 40.7722 7.94405 41.0508 7.78564C41.3363 7.62723 41.6489 7.51703 41.9955 7.44815C42.3421 7.38617 42.6751 7.35173 42.9877 7.35173C43.3479 7.35173 43.6945 7.39305 44.0207 7.46882C44.3469 7.54458 44.646 7.66855 44.911 7.84763C45.1761 8.01982 45.3935 8.2471 45.5702 8.5226C45.7469 8.7981 45.8557 9.13559 45.9032 9.52818H44.2994C44.2246 9.15625 44.0615 8.90142 43.7965 8.77744C43.5314 8.64658 43.2256 8.58459 42.8858 8.58459C42.777 8.58459 42.6479 8.59148 42.4984 8.61214C42.3489 8.6328 42.213 8.66724 42.077 8.71545C41.9479 8.76367 41.8392 8.83943 41.744 8.93585C41.6557 9.03228 41.6081 9.15625 41.6081 9.31467C41.6081 9.50752 41.6761 9.65904 41.8052 9.77613C41.9343 9.89322 42.1042 9.98964 42.3149 10.0723C42.5256 10.1481 42.7634 10.2169 43.0353 10.272C43.3071 10.3271 43.5858 10.3891 43.8712 10.4511C44.1498 10.5131 44.4217 10.5957 44.6935 10.6853C44.9654 10.7748 45.2032 10.8988 45.4139 11.0572C45.6246 11.2156 45.7945 11.4085 45.9236 11.6426C46.0528 11.8768 46.1207 12.173 46.1207 12.5174C46.1207 12.9375 46.0256 13.2888 45.8353 13.5849C45.645 13.8742 45.4003 14.1153 45.1013 14.2943C44.8023 14.4734 44.4625 14.6112 44.0955 14.6938C43.7285 14.7765 43.3615 14.8178 43.0013 14.8178C42.5596 14.8178 42.1518 14.7696 41.778 14.6663C41.4042 14.5629 41.078 14.4114 40.8062 14.2117C40.5343 14.0051 40.3168 13.7502 40.1605 13.4472C40.0042 13.1441 39.9227 12.7791 39.9091 12.3589H41.4586V12.3452ZM46.5285 7.54458H47.6906V5.42323H49.2265V7.54458H50.613V8.70857H49.2265V12.4829C49.2265 12.6482 49.2333 12.786 49.2469 12.9099C49.2605 13.027 49.2945 13.1303 49.3421 13.213C49.3897 13.2956 49.4644 13.3576 49.5663 13.399C49.6683 13.4403 49.7974 13.4609 49.9741 13.4609C50.0829 13.4609 50.1916 13.4609 50.3003 13.4541C50.4091 13.4472 50.5178 13.4334 50.6265 13.4058V14.6112C50.4566 14.6318 50.2867 14.6456 50.1304 14.6663C49.9673 14.6869 49.8042 14.6938 49.6343 14.6938C49.2265 14.6938 48.9003 14.6525 48.6557 14.5767C48.411 14.501 48.2139 14.3839 48.078 14.2323C47.9353 14.0808 47.8469 13.8949 47.7926 13.6676C47.745 13.4403 47.711 13.1786 47.7042 12.8893V8.72234H46.5421V7.54458H46.5285ZM51.7003 7.54458H53.1547V8.50194H53.1819C53.3994 8.08869 53.6984 7.79942 54.0858 7.62034C54.4731 7.44127 54.8877 7.35173 55.343 7.35173C55.8935 7.35173 56.3693 7.44815 56.777 7.64789C57.1848 7.84074 57.5246 8.10935 57.7964 8.45373C58.0683 8.7981 58.2654 9.19758 58.4013 9.65216C58.5372 10.1067 58.6052 10.5957 58.6052 11.1123C58.6052 11.5875 58.544 12.049 58.4217 12.4898C58.2994 12.9375 58.1159 13.3301 57.8712 13.6745C57.6265 14.0188 57.3139 14.2874 56.9333 14.4941C56.5528 14.7007 56.111 14.804 55.5945 14.804C55.3702 14.804 55.146 14.7833 54.9217 14.742C54.6974 14.7007 54.4799 14.6318 54.2761 14.5423C54.0722 14.4527 53.8751 14.3357 53.7052 14.191C53.5285 14.0464 53.3858 13.8811 53.2634 13.6951H53.2362V17.2215H51.7003V7.54458V7.54458ZM57.0693 11.0848C57.0693 10.7679 57.0285 10.458 56.9469 10.1549C56.8654 9.85189 56.743 9.59017 56.5799 9.35599C56.4168 9.12182 56.2129 8.93585 55.9751 8.7981C55.7304 8.66035 55.4518 8.58459 55.1392 8.58459C54.4935 8.58459 54.0042 8.81188 53.678 9.26645C53.3518 9.72103 53.1887 10.3271 53.1887 11.0848C53.1887 11.4429 53.2295 11.7735 53.3178 12.0766C53.4062 12.3796 53.5285 12.6413 53.7052 12.8617C53.8751 13.0821 54.079 13.2543 54.3168 13.3783C54.5547 13.5092 54.8333 13.5711 55.146 13.5711C55.4994 13.5711 55.7916 13.4954 56.0363 13.3507C56.2809 13.2061 56.478 13.0133 56.6343 12.786C56.7906 12.5518 56.9061 12.2901 56.9741 11.9939C57.0353 11.6977 57.0693 11.3947 57.0693 11.0848ZM59.7809 4.85156H61.3168V6.32549H59.7809V4.85156ZM59.7809 7.54458H61.3168V14.6112H59.7809V7.54458ZM62.6896 4.85156H64.2256V14.6112H62.6896V4.85156ZM68.9353 14.804C68.378 14.804 67.8819 14.7076 67.4469 14.5216C67.012 14.3357 66.645 14.0739 66.3392 13.7502C66.0401 13.4196 65.8091 13.027 65.6527 12.5725C65.4964 12.1179 65.4149 11.6151 65.4149 11.071C65.4149 10.5338 65.4964 10.0379 65.6527 9.58328C65.8091 9.1287 66.0401 8.73612 66.3392 8.40552C66.6382 8.07492 67.012 7.82008 67.4469 7.63412C67.8819 7.44815 68.378 7.35173 68.9353 7.35173C69.4925 7.35173 69.9887 7.44815 70.4236 7.63412C70.8586 7.82008 71.2256 8.0818 71.5314 8.40552C71.8304 8.73612 72.0615 9.1287 72.2178 9.58328C72.3741 10.0379 72.4557 10.5338 72.4557 11.071C72.4557 11.6151 72.3741 12.1179 72.2178 12.5725C72.0615 13.027 71.8304 13.4196 71.5314 13.7502C71.2324 14.0808 70.8586 14.3357 70.4236 14.5216C69.9887 14.7076 69.4925 14.804 68.9353 14.804ZM68.9353 13.5711C69.2751 13.5711 69.5741 13.4954 69.8256 13.3507C70.077 13.2061 70.2809 13.0133 70.444 12.7791C70.6071 12.5449 70.7227 12.2763 70.8042 11.9801C70.879 11.684 70.9197 11.3809 70.9197 11.071C70.9197 10.7679 70.879 10.4718 70.8042 10.1687C70.7294 9.86567 70.6071 9.60394 70.444 9.36977C70.2809 9.13559 70.077 8.94963 69.8256 8.80499C69.5741 8.66035 69.2751 8.58459 68.9353 8.58459C68.5955 8.58459 68.2964 8.66035 68.045 8.80499C67.7935 8.94963 67.5896 9.14248 67.4265 9.36977C67.2634 9.60394 67.1479 9.86567 67.0663 10.1687C66.9916 10.4718 66.9508 10.7679 66.9508 11.071C66.9508 11.3809 66.9916 11.684 67.0663 11.9801C67.1411 12.2763 67.2634 12.5449 67.4265 12.7791C67.5896 13.0133 67.7935 13.2061 68.045 13.3507C68.2964 13.5023 68.5955 13.5711 68.9353 13.5711ZM72.9042 7.54458H74.0663V5.42323H75.6023V7.54458H76.9887V8.70857H75.6023V12.4829C75.6023 12.6482 75.609 12.786 75.6226 12.9099C75.6362 13.027 75.6702 13.1303 75.7178 13.213C75.7654 13.2956 75.8401 13.3576 75.9421 13.399C76.044 13.4403 76.1731 13.4609 76.3498 13.4609C76.4586 13.4609 76.5673 13.4609 76.676 13.4541C76.7848 13.4472 76.8935 13.4334 77.0023 13.4058V14.6112C76.8324 14.6318 76.6624 14.6456 76.5061 14.6663C76.343 14.6869 76.1799 14.6938 76.01 14.6938C75.6023 14.6938 75.276 14.6525 75.0314 14.5767C74.7867 14.501 74.5896 14.3839 74.4537 14.2323C74.311 14.0808 74.2226 13.8949 74.1683 13.6676C74.1207 13.4403 74.0867 13.1786 74.0799 12.8893V8.72234H72.9178V7.54458H72.9042Z" fill="#191919"/>
</g>
</g>
<g id="Star">
<path id="Vector_2" d="M18.4383 6.90436H11.3976L9.22281 0.113281L7.04126 6.90436L0.000488281 6.89748L5.70243 11.0989L3.52087 17.883L9.22281 13.6886L14.918 17.883L12.7432 11.0989L18.4383 6.90436Z" fill="#00B67A"/>
<path id="Vector_3" d="M13.2324 12.6336L12.743 11.0977L9.22266 13.6874L13.2324 12.6336Z" fill="#005128"/>
</g>
</g>
</svg>
